<svg width="13" height="20" viewBox="0 0 13 20" fill="none" xmlns="http://www.w3.org/2000/svg">
<path fill-rule="evenodd" clip-rule="evenodd" d="M2.14286 1.42857C1.74837 1.42857 1.42857 1.74837 1.42857 2.14286V17.8571C1.42857 18.2516 1.74837 18.5714 2.14286 18.5714H10.7143C11.1088 18.5714 11.4286 18.2516 11.4286 17.8571V2.14286C11.4286 1.74837 11.1088 1.42857 10.7143 1.42857H2.14286ZM0 2.14286C0 0.95939 0.95939 0 2.14286 0H10.7143C11.8978 0 12.8571 0.95939 12.8571 2.14286V17.8571C12.8571 19.0406 11.8978 20 10.7143 20H2.14286C0.95939 20 0 19.0406 0 17.8571V2.14286Z" fill="#EEEEEE"/>
<path fill-rule="evenodd" clip-rule="evenodd" d="M0 3.57143C0 3.17694 0.319797 2.85714 0.714286 2.85714H12.1429C12.5373 2.85714 12.8571 3.17694 12.8571 3.57143C12.8571 3.96592 12.5373 4.28571 12.1429 4.28571H0.714286C0.319797 4.28571 0 3.96592 0 3.57143Z" fill="#EEEEEE"/>
<path fill-rule="evenodd" clip-rule="evenodd" d="M0 16.4286C0 16.0341 0.319797 15.7143 0.714286 15.7143H12.1429C12.5373 15.7143 12.8571 16.0341 12.8571 16.4286C12.8571 16.8231 12.5373 17.1429 12.1429 17.1429H0.714286C0.319797 17.1429 0 16.8231 0 16.4286Z" fill="#EEEEEE"/>
</svg>
