<svg width="20" height="20" viewBox="0 0 20 20" fill="none" xmlns="http://www.w3.org/2000/svg">
<path fill-rule="evenodd" clip-rule="evenodd" d="M6.78571 7.5C6.78571 7.10551 7.10551 6.78571 7.5 6.78571H12.5C12.8945 6.78571 13.2143 7.10551 13.2143 7.5V12.5C13.2143 12.8945 12.8945 13.2143 12.5 13.2143H7.5C7.10551 13.2143 6.78571 12.8945 6.78571 12.5V7.5ZM8.21429 8.21429V11.7857H11.7857V8.21429H8.21429Z" fill="#EEEEEE"/>
<path fill-rule="evenodd" clip-rule="evenodd" d="M2.14286 3.57143C2.14286 2.78245 2.78245 2.14286 3.57143 2.14286H16.4286C17.2176 2.14286 17.8571 2.78245 17.8571 3.57143V16.4286C17.8571 17.2176 17.2176 17.8571 16.4286 17.8571H3.57143C2.78245 17.8571 2.14286 17.2176 2.14286 16.4286V3.57143ZM16.4286 3.57143H3.57143V16.4286H16.4286V3.57143Z" fill="#EEEEEE"/>
<path fill-rule="evenodd" clip-rule="evenodd" d="M16.4286 7.85714C16.4286 7.46265 16.7484 7.14286 17.1429 7.14286H19.2857C19.6802 7.14286 20 7.46265 20 7.85714C20 8.25163 19.6802 8.57143 19.2857 8.57143H17.1429C16.7484 8.57143 16.4286 8.25163 16.4286 7.85714Z" fill="#EEEEEE"/>
<path fill-rule="evenodd" clip-rule="evenodd" d="M16.4286 12.1429C16.4286 11.7484 16.7484 11.4286 17.1429 11.4286H19.2857C19.6802 11.4286 20 11.7484 20 12.1429C20 12.5373 19.6802 12.8571 19.2857 12.8571H17.1429C16.7484 12.8571 16.4286 12.5373 16.4286 12.1429Z" fill="#EEEEEE"/>
<path fill-rule="evenodd" clip-rule="evenodd" d="M0 7.85714C0 7.46265 0.319797 7.14286 0.714286 7.14286H2.85714C3.25163 7.14286 3.57143 7.46265 3.57143 7.85714C3.57143 8.25163 3.25163 8.57143 2.85714 8.57143H0.714286C0.319797 8.57143 0 8.25163 0 7.85714Z" fill="#EEEEEE"/>
<path fill-rule="evenodd" clip-rule="evenodd" d="M0 12.1429C0 11.7484 0.319797 11.4286 0.714286 11.4286H2.85714C3.25163 11.4286 3.57143 11.7484 3.57143 12.1429C3.57143 12.5373 3.25163 12.8571 2.85714 12.8571H0.714286C0.319797 12.8571 0 12.5373 0 12.1429Z" fill="#EEEEEE"/>
<path fill-rule="evenodd" clip-rule="evenodd" d="M12.1429 16.4286C12.5373 16.4286 12.8571 16.7484 12.8571 17.1429V19.2857C12.8571 19.6802 12.5373 20 12.1429 20C11.7484 20 11.4286 19.6802 11.4286 19.2857V17.1429C11.4286 16.7484 11.7484 16.4286 12.1429 16.4286Z" fill="#EEEEEE"/>
<path fill-rule="evenodd" clip-rule="evenodd" d="M7.85714 16.4286C8.25163 16.4286 8.57143 16.7484 8.57143 17.1429V19.2857C8.57143 19.6802 8.25163 20 7.85714 20C7.46265 20 7.14286 19.6802 7.14286 19.2857V17.1429C7.14286 16.7484 7.46265 16.4286 7.85714 16.4286Z" fill="#EEEEEE"/>
<path fill-rule="evenodd" clip-rule="evenodd" d="M12.1429 0C12.5373 0 12.8571 0.319797 12.8571 0.714286V2.85714C12.8571 3.25163 12.5373 3.57143 12.1429 3.57143C11.7484 3.57143 11.4286 3.25163 11.4286 2.85714V0.714286C11.4286 0.319797 11.7484 0 12.1429 0Z" fill="#EEEEEE"/>
<path fill-rule="evenodd" clip-rule="evenodd" d="M7.85714 0C8.25163 0 8.57143 0.319797 8.57143 0.714286V2.85714C8.57143 3.25163 8.25163 3.57143 7.85714 3.57143C7.46265 3.57143 7.14286 3.25163 7.14286 2.85714V0.714286C7.14286 0.319797 7.46265 0 7.85714 0Z" fill="#EEEEEE"/>
</svg>
