<svg width="16" height="13" viewBox="0 0 16 13" fill="none" xmlns="http://www.w3.org/2000/svg">
<path d="M13.359 9.592C15.06 8.074 16 6.354 16 6.354C16 6.354 13 0.854004 7.99996 0.854004C7.03955 0.857311 6.09002 1.05743 5.20996 1.442L5.97996 2.213C6.6274 1.97716 7.31091 1.85568 7.99996 1.854C10.12 1.854 11.879 3.022 13.168 4.311C13.7883 4.93469 14.3444 5.61913 14.828 6.354C14.77 6.441 14.706 6.537 14.633 6.642C14.298 7.122 13.803 7.762 13.168 8.397C13.003 8.562 12.831 8.725 12.651 8.883L13.359 9.592Z" fill="#024B8D"/>
<path d="M11.2969 7.52999C11.52 6.90583 11.5613 6.23114 11.416 5.58441C11.2707 4.93769 10.9448 4.34552 10.476 3.87681C10.0073 3.40811 9.41517 3.08213 8.76845 2.93682C8.12172 2.79151 7.44702 2.83284 6.82287 3.05599L7.64587 3.87899C8.03018 3.82398 8.42202 3.85924 8.79034 3.98196C9.15866 4.10467 9.49334 4.31149 9.76786 4.586C10.0424 4.86052 10.2492 5.1952 10.3719 5.56352C10.4946 5.93184 10.5299 6.32368 10.4749 6.70799L11.2969 7.52999ZM8.35387 8.82899L9.17587 9.65099C8.55171 9.87415 7.87701 9.91547 7.23029 9.77016C6.58356 9.62485 5.99139 9.29888 5.52269 8.83017C5.05398 8.36147 4.72801 7.7693 4.5827 7.12257C4.43738 6.47584 4.47871 5.80115 4.70187 5.17699L5.52487 5.99999C5.46986 6.3843 5.50511 6.77614 5.62783 7.14446C5.75055 7.51278 5.95736 7.84746 6.23188 8.12198C6.5064 8.3965 6.84107 8.60331 7.2094 8.72603C7.57772 8.84875 7.96956 8.884 8.35387 8.82899Z" fill="#024B8D"/>
<path d="M3.35 3.824C3.17 3.984 2.997 4.146 2.832 4.311C2.21165 4.93469 1.65552 5.61913 1.172 6.354L1.367 6.642C1.702 7.122 2.197 7.762 2.832 8.397C4.121 9.686 5.881 10.854 8 10.854C8.716 10.854 9.39 10.721 10.02 10.494L10.79 11.266C9.90994 11.6505 8.9604 11.8507 8 11.854C3 11.854 0 6.354 0 6.354C0 6.354 0.939 4.633 2.641 3.116L3.349 3.825L3.35 3.824ZM13.646 12.708L1.646 0.708L2.354 0L14.354 12L13.646 12.708Z" fill="#024B8D"/>
</svg>
