<svg width="10" height="11" viewBox="0 0 10 11" fill="none" xmlns="http://www.w3.org/2000/svg">
<path d="M3.88916 7.6665L3.88916 5.99984" stroke="black" stroke-width="0.7" stroke-linecap="round"/>
<path d="M6.11084 7.6665L6.11084 5.99984" stroke="black" stroke-width="0.7" stroke-linecap="round"/>
<path d="M0 3.22266H10V3.22266C9.07953 3.22266 8.33333 3.96885 8.33333 4.88932V7.11155C8.33333 8.3577 8.33333 8.98078 8.06538 9.44488C7.88985 9.74892 7.63737 10.0014 7.33333 10.1769C6.86923 10.4449 6.24616 10.4449 5 10.4449V10.4449C3.75385 10.4449 3.13077 10.4449 2.66667 10.1769C2.36263 10.0014 2.11015 9.74892 1.93462 9.44488C1.66667 8.98078 1.66667 8.3577 1.66667 7.11154V4.88932C1.66667 3.96885 0.920475 3.22266 0 3.22266V3.22266Z" stroke="black" stroke-width="0.7" stroke-linecap="round"/>
<path d="M3.92648 1.20588C3.98978 1.14682 4.12928 1.09463 4.32333 1.0574C4.51738 1.02018 4.75513 1 4.99973 1C5.24432 1 5.48208 1.02018 5.67613 1.0574C5.87018 1.09463 6.00967 1.14682 6.07298 1.20588" stroke="black" stroke-width="0.7" stroke-linecap="round"/>
</svg>
