<svg width="10" height="10" viewBox="0 0 10 10" fill="none" xmlns="http://www.w3.org/2000/svg">
<path d="M9.7663 3.65615C10.081 3.33635 10.0769 2.8203 9.75969 2.50813L7.48501 0.233954C7.33044 0.0814276 7.12453 -0.00297062 6.90845 7.99134e-05C6.69136 0.00160518 6.48748 0.0880371 6.33699 0.240564L0.235402 6.34266C0.0828753 6.49569 -0.000506112 6.69906 2.31142e-06 6.91412V9.18677C2.31142e-06 9.6352 0.36505 10.0003 0.813479 10.0003H9.35498C9.57971 10.0003 9.76172 9.81824 9.76172 9.59351C9.76172 9.36879 9.57971 9.18677 9.35498 9.18677H4.23567L9.7663 3.65615ZM6.9171 0.81559L9.18466 3.08773L8.13528 4.13712L5.86517 1.86701L6.9171 0.81559ZM0.811445 6.91717L5.28913 2.44204L7.55924 4.71214L3.08562 9.18677H0.813479L0.811445 6.91717Z" fill="black"/>
</svg>
