<svg width="20" height="20" viewBox="0 0 20 20" fill="none" xmlns="http://www.w3.org/2000/svg">
<path fill-rule="evenodd" clip-rule="evenodd" d="M0 1.73913C0 0.778635 0.778635 0 1.73913 0H18.2609C19.2214 0 20 0.778635 20 1.73913V18.2609C20 19.2214 19.2214 20 18.2609 20H1.73913C0.778635 20 0 19.2214 0 18.2609V1.73913ZM18.2609 1.73913H1.73913V18.2609H18.2609V1.73913Z" fill="#EEEEEE"/>
<path fill-rule="evenodd" clip-rule="evenodd" d="M10 0C10.4802 0 10.8696 0.389318 10.8696 0.869565V19.1304C10.8696 19.6107 10.4802 20 10 20C9.51975 20 9.13043 19.6107 9.13043 19.1304V0.869565C9.13043 0.389318 9.51975 0 10 0Z" fill="#EEEEEE"/>
<path fill-rule="evenodd" clip-rule="evenodd" d="M0 10C0 9.51975 0.389318 9.13043 0.869565 9.13043H19.1304C19.6107 9.13043 20 9.51975 20 10C20 10.4802 19.6107 10.8696 19.1304 10.8696H0.869565C0.389318 10.8696 0 10.4802 0 10Z" fill="#EEEEEE"/>
</svg>
