<svg width="20" height="20" viewBox="0 0 20 20" fill="none" xmlns="http://www.w3.org/2000/svg">
<path d="M10 0C8.02219 0 6.08879 0.58649 4.4443 1.6853C2.79981 2.78412 1.51809 4.34591 0.761209 6.17317C0.00433283 8.00043 -0.193701 10.0111 0.192152 11.9509C0.578004 13.8907 1.53041 15.6725 2.92894 17.0711C4.32746 18.4696 6.10929 19.422 8.0491 19.8079C9.98891 20.1937 11.9996 19.9957 13.8268 19.2388C15.6541 18.4819 17.2159 17.2002 18.3147 15.5557C19.4135 13.9112 20 11.9778 20 10C20 7.34784 18.9464 4.8043 17.0711 2.92893C15.1957 1.05357 12.6522 0 10 0ZM10 18.5714C8.30474 18.5714 6.64754 18.0687 5.23797 17.1269C3.82841 16.185 2.72979 14.8464 2.08104 13.2801C1.43229 11.7139 1.26254 9.99049 1.59327 8.3278C1.924 6.6651 2.74035 5.13782 3.93909 3.93909C5.13783 2.74035 6.66511 1.924 8.3278 1.59327C9.9905 1.26254 11.7139 1.43228 13.2801 2.08103C14.8464 2.72978 16.185 3.82841 17.1269 5.23797C18.0687 6.64753 18.5714 8.30473 18.5714 10C18.5714 12.2733 17.6684 14.4535 16.0609 16.0609C14.4535 17.6684 12.2733 18.5714 10 18.5714Z" fill="white"/>
<path d="M6.78572 6.42852C6.43253 6.42852 6.08728 6.53325 5.79363 6.72947C5.49997 6.92569 5.27109 7.20458 5.13593 7.53088C5.00077 7.85717 4.96541 8.21622 5.03431 8.56262C5.10322 8.90901 5.27329 9.22719 5.52302 9.47693C5.77276 9.72667 6.09094 9.89674 6.43734 9.96564C6.78373 10.0345 7.14278 9.99918 7.46908 9.86402C7.79538 9.72887 8.07427 9.49999 8.27048 9.20633C8.4667 8.91267 8.57143 8.56742 8.57143 8.21424C8.57333 7.97921 8.52844 7.74614 8.43938 7.52863C8.35031 7.31112 8.21885 7.11351 8.05265 6.94731C7.88645 6.78111 7.68884 6.64964 7.47132 6.56058C7.25381 6.47151 7.02075 6.42662 6.78572 6.42852ZM13.2143 6.42852C12.8611 6.42852 12.5159 6.53325 12.2222 6.72947C11.9285 6.92569 11.6997 7.20458 11.5645 7.53088C11.4293 7.85717 11.394 8.21622 11.4629 8.56262C11.5318 8.90901 11.7019 9.22719 11.9516 9.47693C12.2013 9.72667 12.5195 9.89674 12.8659 9.96564C13.2123 10.0345 13.5714 9.99918 13.8977 9.86402C14.2239 9.72887 14.5028 9.49999 14.6991 9.20633C14.8953 8.91267 15 8.56742 15 8.21424C15.0019 7.97921 14.957 7.74614 14.8679 7.52863C14.7789 7.31112 14.6474 7.11351 14.4812 6.94731C14.315 6.78111 14.1174 6.64964 13.8999 6.56058C13.6824 6.47151 13.4493 6.42662 13.2143 6.42852ZM10 15.7142C10.986 15.7126 11.9548 15.4558 12.8121 14.9689C13.6695 14.482 14.3863 13.7816 14.8929 12.9357L13.6714 12.2214C13.2902 12.8544 12.7519 13.3781 12.1086 13.7416C11.4653 14.1052 10.7389 14.2962 10 14.2962C9.26109 14.2962 8.53472 14.1052 7.89143 13.7416C7.24813 13.3781 6.70976 12.8544 6.32857 12.2214L5.10714 12.9357C5.61369 13.7816 6.3305 14.482 7.18787 14.9689C8.04525 15.4558 9.01402 15.7126 10 15.7142Z" fill="white"/>
</svg>
