<svg width="25" height="25" viewBox="0 0 25 25" fill="none" xmlns="http://www.w3.org/2000/svg">
<path fill-rule="evenodd" clip-rule="evenodd" d="M12.5 1.92308C6.65853 1.92308 1.92308 6.65853 1.92308 12.5C1.92308 18.3415 6.65853 23.0769 12.5 23.0769C18.3415 23.0769 23.0769 18.3415 23.0769 12.5C23.0769 6.65853 18.3415 1.92308 12.5 1.92308ZM0 12.5C0 5.59644 5.59644 0 12.5 0C19.4036 0 25 5.59644 25 12.5C25 19.4036 19.4036 25 12.5 25C5.59644 25 0 19.4036 0 12.5Z" fill="white"/>
<path d="M12.5 20.1923C13.2966 20.1923 13.9423 19.5466 13.9423 18.75C13.9423 17.9534 13.2966 17.3077 12.5 17.3077C11.7034 17.3077 11.0577 17.9534 11.0577 18.75C11.0577 19.5466 11.7034 20.1923 12.5 20.1923Z" fill="white"/>
<path fill-rule="evenodd" clip-rule="evenodd" d="M10.8442 6.0986C11.6348 5.77111 12.5048 5.68542 13.3441 5.85237C14.1835 6.01933 14.9545 6.43143 15.5596 7.03656C16.1647 7.64169 16.5768 8.41267 16.7438 9.25201C16.9107 10.0914 16.825 10.9614 16.4976 11.752C16.1701 12.5426 15.6155 13.2184 14.9039 13.6939C14.4628 13.9886 13.9736 14.1982 13.4615 14.3149V14.4231C13.4615 14.9541 13.031 15.3846 12.5 15.3846C11.969 15.3846 11.5385 14.9541 11.5385 14.4231V13.4615C11.5385 13.2065 11.6398 12.962 11.8201 12.7816C12.0004 12.6013 12.245 12.5 12.5 12.5C12.9754 12.5 13.4402 12.359 13.8355 12.0949C14.2308 11.8307 14.5389 11.4553 14.7209 11.0161C14.9028 10.5768 14.9504 10.0935 14.8577 9.62719C14.7649 9.16089 14.536 8.73256 14.1998 8.39638C13.8636 8.0602 13.4353 7.83125 12.969 7.7385C12.5027 7.64575 12.0193 7.69335 11.5801 7.87529C11.1408 8.05723 10.7654 8.36534 10.5013 8.76065C10.2371 9.15596 10.0962 9.62072 10.0962 10.0962C10.0962 10.6272 9.66566 11.0577 9.13461 11.0577C8.60357 11.0577 8.17308 10.6272 8.17308 10.0962C8.17308 9.24037 8.42685 8.4038 8.90229 7.69225C9.37774 6.98069 10.0535 6.42609 10.8442 6.0986Z" fill="white"/>
</svg>
