<svg width="20" height="20" viewBox="0 0 20 20" fill="none" xmlns="http://www.w3.org/2000/svg">
<path d="M10 0C8.02219 0 6.08879 0.58649 4.4443 1.6853C2.79981 2.78412 1.51809 4.3459 0.761209 6.17316C0.00433283 8.00043 -0.1937 10.0111 0.192152 11.9509C0.578004 13.8907 1.53041 15.6725 2.92894 17.0711C4.32746 18.4696 6.10929 19.422 8.0491 19.8078C9.98891 20.1937 11.9996 19.9957 13.8268 19.2388C15.6541 18.4819 17.2159 17.2002 18.3147 15.5557C19.4135 13.9112 20 11.9778 20 10C20 7.34783 18.9464 4.80429 17.0711 2.92893C15.1957 1.05357 12.6522 0 10 0ZM10 18.5714C8.30473 18.5714 6.64754 18.0687 5.23797 17.1269C3.82841 16.185 2.72979 14.8464 2.08104 13.2801C1.43229 11.7139 1.26254 9.99049 1.59327 8.3278C1.924 6.6651 2.74035 5.13782 3.93909 3.93908C5.13782 2.74035 6.66511 1.924 8.3278 1.59327C9.99049 1.26254 11.7139 1.43228 13.2801 2.08103C14.8464 2.72978 16.185 3.8284 17.1269 5.23797C18.0687 6.64753 18.5714 8.30473 18.5714 10C18.5714 12.2733 17.6684 14.4535 16.0609 16.0609C14.4535 17.6684 12.2733 18.5714 10 18.5714Z" fill="white"/>
<path d="M6.78572 6.42847C6.43253 6.42847 6.08728 6.5332 5.79363 6.72941C5.49997 6.92563 5.27109 7.20452 5.13593 7.53082C5.00077 7.85711 4.96541 8.21616 5.03431 8.56256C5.10321 8.90895 5.27329 9.22713 5.52302 9.47687C5.77276 9.72661 6.09094 9.89668 6.43734 9.96558C6.78373 10.0345 7.14278 9.99912 7.46908 9.86397C7.79538 9.72881 8.07427 9.49993 8.27048 9.20627C8.4667 8.91261 8.57143 8.56736 8.57143 8.21418C8.57143 7.74058 8.38329 7.28638 8.04841 6.95149C7.71352 6.6166 7.25932 6.42847 6.78572 6.42847ZM13.2143 6.42847C12.8611 6.42847 12.5159 6.5332 12.2222 6.72941C11.9285 6.92563 11.6997 7.20452 11.5645 7.53082C11.4293 7.85711 11.394 8.21616 11.4629 8.56256C11.5318 8.90895 11.7019 9.22713 11.9516 9.47687C12.2013 9.72661 12.5195 9.89668 12.8659 9.96558C13.2123 10.0345 13.5714 9.99912 13.8976 9.86397C14.2239 9.72881 14.5028 9.49993 14.6991 9.20627C14.8953 8.91261 15 8.56736 15 8.21418C15 7.74058 14.8119 7.28638 14.477 6.95149C14.1421 6.6166 13.6879 6.42847 13.2143 6.42847ZM10 12.1428C9.01402 12.1444 8.04525 12.4012 7.18787 12.8881C6.3305 13.375 5.61369 14.0754 5.10714 14.9213L6.32857 15.6356C6.70976 15.0026 7.24813 14.4789 7.89143 14.1154C8.53472 13.7518 9.26109 13.5608 10 13.5608C10.7389 13.5608 11.4653 13.7518 12.1086 14.1154C12.7519 14.4789 13.2902 15.0026 13.6714 15.6356L14.8929 14.9213C14.3863 14.0754 13.6695 13.375 12.8121 12.8881C11.9548 12.4012 10.986 12.1444 10 12.1428Z" fill="white"/>
</svg>
