<svg width="20" height="20" viewBox="0 0 20 20" fill="none" xmlns="http://www.w3.org/2000/svg">
<path d="M10 0C8.02219 0 6.08879 0.58649 4.4443 1.6853C2.79981 2.78412 1.51809 4.3459 0.761209 6.17316C0.00433283 8.00043 -0.1937 10.0111 0.192152 11.9509C0.578004 13.8907 1.53041 15.6725 2.92894 17.0711C4.32746 18.4696 6.10929 19.422 8.0491 19.8078C9.98891 20.1937 11.9996 19.9957 13.8268 19.2388C15.6541 18.4819 17.2159 17.2002 18.3147 15.5557C19.4135 13.9112 20 11.9778 20 10C20 7.34783 18.9464 4.80429 17.0711 2.92893C15.1957 1.05357 12.6522 0 10 0ZM10 18.5714C8.30473 18.5714 6.64754 18.0687 5.23797 17.1269C3.82841 16.185 2.72979 14.8464 2.08104 13.2801C1.43229 11.7139 1.26254 9.99049 1.59327 8.3278C1.924 6.6651 2.74035 5.13782 3.93909 3.93908C5.13782 2.74035 6.66511 1.924 8.3278 1.59327C9.99049 1.26254 11.7139 1.43228 13.2801 2.08103C14.8464 2.72978 16.185 3.8284 17.1269 5.23797C18.0687 6.64753 18.5714 8.30473 18.5714 10C18.5714 12.2733 17.6684 14.4535 16.0609 16.0609C14.4535 17.6684 12.2733 18.5714 10 18.5714Z" fill="white"/>
<path d="M16.007 6.42853L14.9998 5.42139L13.5712 6.84996L12.1427 5.42139L11.1355 6.42853L12.5641 7.8571L11.1355 9.28567L12.1427 10.2928L13.5712 8.86424L14.9998 10.2928L16.007 9.28567L14.5784 7.8571L16.007 6.42853ZM8.8641 6.42853L7.85696 5.42139L6.42839 6.84996L4.99982 5.42139L3.99268 6.42853L5.42125 7.8571L3.99268 9.28567L4.99982 10.2928L6.42839 8.86424L7.85696 10.2928L8.8641 9.28567L7.43553 7.8571L8.8641 6.42853ZM9.99982 12.1428C9.576 12.1428 9.1617 12.2685 8.80931 12.5039C8.45692 12.7394 8.18226 13.0741 8.02008 13.4656C7.85789 13.8572 7.81545 14.288 7.89813 14.7037C7.98082 15.1194 8.1849 15.5012 8.48459 15.8009C8.78427 16.1006 9.16609 16.3047 9.58177 16.3874C9.99744 16.47 10.4283 16.4276 10.8199 16.2654C11.2114 16.1032 11.5461 15.8286 11.7815 15.4762C12.017 15.1238 12.1427 14.7095 12.1427 14.2857C12.1427 13.7173 11.9169 13.1723 11.515 12.7704C11.1132 12.3686 10.5681 12.1428 9.99982 12.1428Z" fill="white"/>
</svg>
