<svg width="18" height="19" viewBox="0 0 18 19" fill="none" xmlns="http://www.w3.org/2000/svg">
<path d="M17.5683 4.51487L13.4737 0.42114C13.1955 0.146577 12.8248 -0.0053474 12.4358 0.000143852C12.0451 0.00288948 11.6781 0.158475 11.4072 0.433037L0.423741 11.4174C0.280969 11.5611 0.172974 11.7285 0.101588 11.9107C0.0915208 11.9345 0.0832839 11.9583 0.0759623 11.982C0.026541 12.1294 0 12.2859 0 12.4461V16.537C0 17.3443 0.657119 18.0014 1.46433 18.0014H5.55806C5.70998 18.0014 5.86099 17.9757 6.00377 17.9291C6.03946 17.919 6.07515 17.9071 6.10901 17.8916C6.28565 17.8192 6.44856 17.7122 6.58492 17.5767L17.5793 6.58141C18.1458 6.00574 18.1385 5.0768 17.5674 4.51487H17.5683ZM1.76818 12.144L9.52091 4.39589L11.0447 5.91971L3.29475 13.6706L1.76818 12.144ZM1.4625 13.9086L4.09007 16.5361H1.46433L1.46159 13.9086H1.4625ZM5.85825 16.2332L4.33076 14.7057L12.0817 6.95481L13.6091 8.48229L5.85825 16.2332ZM14.6442 7.44719L10.5578 3.36079L12.4514 1.46814L16.5332 5.5582L14.6442 7.44719Z" fill="#4170FF"/>
</svg>
