<svg width="24" height="27" viewBox="0 0 24 27" fill="none" xmlns="http://www.w3.org/2000/svg">
<path d="M23.475 18.9988C22.7325 17.7163 21.8475 15.2875 21.8475 11V10.1125C21.8463 4.5775 17.4025 0.04125 11.94 0H11.87C9.20252 0.00375 6.69502 1.04625 4.81252 2.935C2.92877 4.82375 1.89377 7.3325 1.89752 10V11C1.89752 15.2875 1.01252 17.7163 0.268772 19C0.0937725 19.3013 2.24631e-05 19.645 2.24631e-05 19.9925C-0.00247754 20.5263 0.203773 21.03 0.581273 21.4088C0.958773 21.7875 1.45877 21.9975 1.99752 22H6.87127C6.87127 24.7575 9.11377 27 11.8713 27C14.6288 27 16.8713 24.7575 16.8713 22H21.75C22.0988 22 22.4425 21.9062 22.7425 21.7325C23.205 21.465 23.5363 21.0337 23.675 20.5187C23.8138 20.0025 23.7425 19.4638 23.475 19V18.9988ZM11.8725 25C10.2188 25 8.87252 23.6538 8.87252 22H14.8725C14.8725 23.6538 13.5263 25 11.8725 25ZM15.8788 20C15.8788 20 15.875 20 15.8725 20C15.87 20 15.8688 20 15.8663 20H7.88502C7.88502 20 7.87627 20 7.87127 20C7.86627 20 7.86252 20 7.85752 20H2.00002C2.86502 18.505 3.89752 15.73 3.89752 10.9988V9.99875C3.89502 7.86375 4.72252 5.85625 6.22877 4.34625C7.73502 2.835 9.74002 2.00125 11.875 1.99875H11.9275C16.295 2.0325 19.8475 5.67125 19.8475 10.1112V10.9988C19.8475 15.73 20.8788 18.505 21.7475 19.9988H15.8788V20Z" fill="white"/>
</svg>
