<svg width="20" height="18" viewBox="0 0 20 18" fill="none" xmlns="http://www.w3.org/2000/svg">
<path fill-rule="evenodd" clip-rule="evenodd" d="M17.6923 13.5C18.1171 13.5 18.4615 13.1642 18.4615 12.75V2.25C18.4615 1.83579 18.1171 1.5 17.6923 1.5H2.30769C1.88286 1.5 1.53846 1.83579 1.53846 2.25V12.75C1.53846 13.1642 1.88286 13.5 2.30769 13.5H17.6923ZM20 12.75C20 13.9926 18.9668 15 17.6923 15H2.30769C1.03319 15 0 13.9926 0 12.75V2.25C0 1.00736 1.03319 0 2.30769 0H17.6923C18.9668 0 20 1.00736 20 2.25V12.75Z" fill="#EEEEEE"/>
<path fill-rule="evenodd" clip-rule="evenodd" d="M6.15385 17.25C6.15385 16.8358 6.49824 16.5 6.92308 16.5H13.0769C13.5018 16.5 13.8462 16.8358 13.8462 17.25C13.8462 17.6642 13.5018 18 13.0769 18H6.92308C6.49824 18 6.15385 17.6642 6.15385 17.25Z" fill="#EEEEEE"/>
</svg>
