<svg width="30" height="28" viewBox="0 0 30 28" fill="none" xmlns="http://www.w3.org/2000/svg">
<path fill-rule="evenodd" clip-rule="evenodd" d="M0.675943 0.673905C1.10872 0.242412 1.69569 0 2.30773 0H27.6923C28.3043 0 28.8913 0.242411 29.3241 0.673905C29.7569 1.1054 30 1.69063 30 2.30085V20.7077C30 21.3179 29.7569 21.9031 29.3241 22.3346C28.8913 22.7661 28.3043 23.0085 27.6923 23.0085H8.51895L8.36914 23.061L3.77893 26.9004C3.44273 27.1777 3.03453 27.3544 2.60169 27.4098C2.16886 27.4653 1.72914 27.3972 1.33355 27.2135C0.937953 27.0299 0.602695 26.7381 0.36667 26.3722C0.130647 26.0062 0.00353047 25.581 7.24196e-05 25.146L0 25.1368L3.61754e-05 2.30085C3.61754e-05 1.69063 0.243168 1.1054 0.675943 0.673905ZM27.6923 2.30085L2.30773 2.30085V25.1277L7.04691 21.1637C7.15332 21.0747 7.27497 21.0056 7.406 20.9597L7.93966 20.7727C8.06256 20.7297 8.19188 20.7077 8.32214 20.7077H27.6923V2.30085Z" fill="#024B8D"/>
<path fill-rule="evenodd" clip-rule="evenodd" d="M9.23076 9.20342C9.23076 8.56805 9.74735 8.05299 10.3846 8.05299H19.6154C20.2526 8.05299 20.7692 8.56805 20.7692 9.20342C20.7692 9.83878 20.2526 10.3538 19.6154 10.3538H10.3846C9.74735 10.3538 9.23076 9.83878 9.23076 9.20342Z" fill="#024B8D"/>
<path fill-rule="evenodd" clip-rule="evenodd" d="M9.23076 13.8051C9.23076 13.1698 9.74735 12.6547 10.3846 12.6547H19.6154C20.2526 12.6547 20.7692 13.1698 20.7692 13.8051C20.7692 14.4405 20.2526 14.9556 19.6154 14.9556H10.3846C9.74735 14.9556 9.23076 14.4405 9.23076 13.8051Z" fill="#024B8D"/>
</svg>
