<svg width="18" height="18" viewBox="0 0 18 18" fill="none" xmlns="http://www.w3.org/2000/svg">
<path d="M17.5793 6.58107C18.1458 6.00543 18.1385 5.07654 17.5674 4.51464L13.473 0.421118C13.1948 0.14657 12.8242 -0.00534712 12.4352 0.000143844C12.0444 0.00288933 11.6775 0.158467 11.4066 0.433015L0.423724 11.4168C0.149175 11.6922 -0.000911001 12.0583 4.16056e-06 12.4454V16.5362C4.16056e-06 17.3434 0.65709 18.0005 1.46426 18.0005H16.839C17.2435 18.0005 17.5711 17.6728 17.5711 17.2683C17.5711 16.8638 17.2435 16.5362 16.839 16.5362H7.62421L17.5793 6.58107ZM12.4508 1.46806L16.5324 5.55792L14.6435 7.44681L10.5573 3.36062L12.4508 1.46806ZM1.4606 12.4509L9.52043 4.39566L13.6066 8.48186L5.55412 16.5362H1.46426L1.4606 12.4509Z" fill="#CDCDCD"/>
</svg>
