<svg width="20" height="20" viewBox="0 0 20 20" fill="none" xmlns="http://www.w3.org/2000/svg">
<path fill-rule="evenodd" clip-rule="evenodd" d="M8.84622 1.53847C4.81026 1.53847 1.53847 4.81026 1.53847 8.84622C1.53847 12.8822 4.81026 16.154 8.84622 16.154C12.8822 16.154 16.154 12.8822 16.154 8.84622C16.154 4.81026 12.8822 1.53847 8.84622 1.53847ZM0 8.84622C0 3.96059 3.96059 0 8.84622 0C13.7319 0 17.6924 3.96059 17.6924 8.84622C17.6924 13.7319 13.7319 17.6924 8.84622 17.6924C3.96059 17.6924 0 13.7319 0 8.84622Z" fill="#ABABAB"/>
<path fill-rule="evenodd" clip-rule="evenodd" d="M14.0137 14.0139C14.3141 13.7135 14.8012 13.7135 15.1016 14.0139L19.7747 18.687C20.0751 18.9874 20.0751 19.4745 19.7747 19.7749C19.4743 20.0753 18.9872 20.0753 18.6868 19.7749L14.0137 15.1018C13.7133 14.8014 13.7133 14.3143 14.0137 14.0139Z" fill="#ABABAB"/>
</svg>
