<svg width="27" height="25" viewBox="0 0 27 25" fill="none" xmlns="http://www.w3.org/2000/svg">
<path fill-rule="evenodd" clip-rule="evenodd" d="M9.07953 0.0451522C9.33598 -0.0376305 9.61568 -0.00558128 9.84676 0.133063L12.5761 1.77066C12.9106 1.75571 13.2457 1.75572 13.5802 1.77069L16.2982 0.144178C16.5274 0.00703931 16.8043 -0.025404 17.0589 0.055051C18.8426 0.618566 20.4825 1.563 21.865 2.82295C22.0632 3.00357 22.1742 3.26068 22.1697 3.52879L22.1163 6.70133C22.3006 6.98436 22.4697 7.277 22.6229 7.578L25.3896 9.11625C25.6226 9.24577 25.7891 9.4687 25.8472 9.72885C26.2542 11.552 26.2585 13.442 25.8598 15.267C25.8025 15.5294 25.6349 15.7544 25.4 15.8845L22.6225 17.4228C22.4694 17.7235 22.3004 18.0159 22.1163 18.2987L22.1697 21.4712C22.1742 21.7393 22.0632 21.9965 21.865 22.1771C20.4854 23.4343 18.8525 24.3814 17.0762 24.9548C16.8197 25.0376 16.54 25.0056 16.3089 24.8669L13.5796 23.2293C13.2451 23.2443 12.91 23.2443 12.5755 23.2293L9.8575 24.8558C9.62833 24.993 9.35141 25.0254 9.09676 24.9449C7.3131 24.3814 5.67323 23.437 4.29067 22.177C4.09246 21.9964 3.98149 21.7393 3.98602 21.4712L4.03949 18.3058C3.85627 18.0198 3.68733 17.725 3.53329 17.4223L0.766064 15.8837C0.533095 15.7542 0.366594 15.5313 0.30851 15.2712C-0.0985469 13.448 -0.102842 11.558 0.295923 9.73299C0.353253 9.47061 0.520787 9.24563 0.755727 9.11551L3.53317 7.57723C3.68629 7.2765 3.85528 6.98412 4.03943 6.70133L3.98602 3.52879C3.9815 3.26067 4.09249 3.00355 4.2907 2.82293C5.67035 1.56572 7.30324 0.618557 9.07953 0.0451522ZM5.86044 3.92935L5.91152 6.96374C5.91483 7.16033 5.856 7.35294 5.74342 7.51412C5.49297 7.87267 5.27372 8.25203 5.08805 8.64802C5.00458 8.82604 4.86704 8.97317 4.69503 9.06843L2.03927 10.5393C1.80697 11.8362 1.81019 13.1645 2.0488 14.4603L4.69637 15.9323C4.86707 16.0272 5.00371 16.1733 5.08706 16.3499C5.27681 16.752 5.49812 17.1384 5.74892 17.5055C5.85797 17.6651 5.91479 17.8547 5.91152 18.048L5.86046 21.0705C6.86969 21.9231 8.02378 22.5876 9.26777 23.0325L11.8631 21.4794C12.0275 21.381 12.2181 21.3356 12.4092 21.3492C12.8544 21.3811 13.3013 21.3811 13.7465 21.3492C13.938 21.3356 14.129 21.3812 14.2935 21.4799L16.8972 23.0421C18.1371 22.5902 19.2875 21.9228 20.2953 21.0706L20.2442 18.0363C20.2409 17.8397 20.2997 17.6471 20.4123 17.4859C20.6627 17.1273 20.882 16.748 21.0677 16.352C21.1511 16.174 21.2887 16.0268 21.4607 15.9316L24.1164 14.4607C24.3487 13.1637 24.3455 11.8355 24.1069 10.5397L21.4593 9.06769C21.2879 8.9724 21.1509 8.82557 21.0677 8.64802C20.882 8.25203 20.6627 7.87268 20.4123 7.51412C20.2997 7.35294 20.2409 7.16033 20.2442 6.96374L20.2953 3.92948C19.286 3.07691 18.1319 2.41237 16.8879 1.96752L14.2926 3.52063C14.1282 3.61899 13.9376 3.66442 13.7465 3.65075C13.3013 3.6189 12.8544 3.6189 12.4092 3.65075C12.2177 3.66444 12.0267 3.61881 11.8622 3.52007L9.25848 1.95786C8.01855 2.40976 6.86816 3.0772 5.86044 3.92935ZM13.0779 7.83147C10.4995 7.83147 8.40932 9.92164 8.40932 12.5C8.40932 15.0784 10.4995 17.1685 13.0779 17.1685C15.6562 17.1685 17.7464 15.0784 17.7464 12.5C17.7464 9.92164 15.6562 7.83147 13.0779 7.83147ZM6.54191 12.5C6.54191 8.8903 9.46815 5.96405 13.0779 5.96405C16.6876 5.96405 19.6138 8.8903 19.6138 12.5C19.6138 16.1097 16.6876 19.0359 13.0779 19.0359C9.46815 19.0359 6.54191 16.1097 6.54191 12.5Z" fill="white"/>
</svg>
