<svg width="30" height="34" viewBox="0 0 30 34" fill="none" xmlns="http://www.w3.org/2000/svg">
<path fill-rule="evenodd" clip-rule="evenodd" d="M13.8672 0.301525C14.212 0.10397 14.6025 0 15 0C15.3975 0 15.788 0.10397 16.1328 0.301525L22.5052 3.88598C22.593 3.92192 22.6766 3.96873 22.7538 4.02579L28.8244 7.44053C29.1319 7.61519 29.3949 7.8574 29.5939 8.14807C29.6291 8.19294 29.6615 8.241 29.6905 8.29211C29.7124 8.33067 29.7318 8.36996 29.7489 8.40979C29.9116 8.73086 29.9978 9.08602 29.9998 9.44728L29.9998 9.45348L29.9998 16.3825C30.0001 16.397 30.0001 16.4115 29.9998 16.426V23.6806C29.9976 24.0889 29.8878 24.4894 29.6814 24.8418C29.4751 25.1941 29.1794 25.4857 28.8244 25.6874L28.8203 25.6897L22.5293 29.2284C22.5021 29.2452 22.4741 29.261 22.4454 29.2756L16.1328 32.8264C15.788 33.0239 15.3975 33.1279 15 33.1279C14.6025 33.1279 14.212 33.024 13.8672 32.8264L7.55456 29.2756C7.5259 29.261 7.49794 29.2452 7.47072 29.2284L1.17969 25.6897L1.1756 25.6874C0.820549 25.4857 0.524942 25.1941 0.318584 24.8418C0.112226 24.4894 0.00241418 24.0889 0.000221262 23.6806L0.000204619 23.6744V16.426C-6.78623e-05 16.4115 -6.855e-05 16.397 0.000204619 16.3826V9.44728C0.00214239 9.08649 0.08813 8.73178 0.250494 8.41103C0.266449 8.37358 0.284535 8.33661 0.304796 8.30026C0.33525 8.24563 0.369486 8.19443 0.406994 8.14682C0.605864 7.85671 0.868495 7.61494 1.1756 7.44054L1.17969 7.43822L7.24624 4.02579C7.32344 3.96873 7.40703 3.92192 7.4948 3.88598L13.8672 0.301525ZM7.94125 6.28254L3.51822 8.77049L15.1244 15.2399L26.4972 8.77917L22.0588 6.28254L15.5663 9.93954C15.2147 10.1375 14.7853 10.1375 14.4337 9.93954L7.94125 6.28254ZM19.7061 4.95916L15 2.31199L10.2939 4.95916L15 7.60994L19.7061 4.95916ZM27.6921 10.7544L16.2779 17.2386L16.1691 30.1583L20.7692 27.5708V20.2995C20.7692 19.8827 20.994 19.4982 21.3573 19.2938L27.6921 15.7305V10.7544ZM27.6921 18.3782L23.0768 20.9743V26.2727L27.6849 23.6807C27.6869 23.6795 27.689 23.6775 27.6902 23.6755C27.6914 23.6734 27.692 23.6712 27.6921 23.6689V18.3782ZM13.8612 30.1754L9.23085 27.5708V20.2995C9.23085 19.8827 9.00601 19.4982 8.6427 19.2938L2.30787 15.7305V10.7378L13.9702 17.2385L13.8612 30.1754ZM2.30787 18.3782V23.6689C2.30798 23.6712 2.30865 23.6734 2.30983 23.6755C2.31102 23.6775 2.3127 23.6792 2.31472 23.6805L6.92319 26.2727V20.9743L2.30787 18.3782Z" fill="white"/>
</svg>
