<svg width="30" height="31" viewBox="0 0 30 31" fill="none" xmlns="http://www.w3.org/2000/svg">
<path d="M29.2806 7.52478L22.4562 0.701899C21.9924 0.244295 21.3747 -0.00891233 20.7264 0.000239752C20.0751 0.00481579 19.4634 0.264125 19.0119 0.721729L0.706236 19.0289C0.468281 19.2684 0.288291 19.5476 0.169313 19.8511C0.152535 19.8908 0.138807 19.9304 0.126604 19.9701C0.044235 20.2157 0 20.4765 0 20.7434V27.5617C0 28.9071 1.0952 30.0023 2.44055 30.0023H9.26343C9.51664 30.0023 9.76832 29.9596 10.0063 29.8818C10.0658 29.865 10.1253 29.8452 10.1817 29.8192C10.4761 29.6987 10.7476 29.5203 10.9749 29.2945L23.7435 16.5258L24.2728 18.6461L18.6596 24.2594C18.1837 24.7353 18.1837 25.5086 18.6596 25.9845C18.8975 26.2225 19.2102 26.3415 19.5229 26.3415C19.8356 26.3415 20.1468 26.2225 20.3863 25.9845L26.4876 19.8831C26.7912 19.5796 26.9132 19.1403 26.808 18.7239L25.7555 14.5124L29.2989 10.969C30.243 10.0096 30.2308 8.46134 29.279 7.52478H29.2806ZM2.43598 23.1809L6.81525 27.5602H2.44055L2.43598 23.1809ZM9.76222 27.0553L2.94544 20.2385L15.8682 7.32648L22.6789 14.1372L9.76069 27.0553H9.76222ZM24.4055 12.412L17.5949 5.60131L20.7508 2.4469L27.5539 9.26367L24.4055 12.412Z" fill="white"/>
</svg>
